#!OML:ASF X:\für Bonn\!DataBase\2005_08_12_Daniel\c3d\Daniel.ASF
:FULLY-SPECIFIED
:DEGREES
1
root -4.66028 17.0863 -0.997745 336.642 -88.3259 -346.526
lowerback 18.0275 -2.06878 0.820274
upperback 0.710054 -3.0397 -3.63011
thorax -9.61297 -1.63101 -3.62572
lowerneck 3.87888 1.01489 -2.63277
upperneck 4.05437 1.09955 4.06675
head 0.563399 0.496586 1.6994
rclavicle -1.44492e-014 -3.10104e-014
rhumerus 90.7729 -37.6731 -194.962
rradius 10.4766
rwrist 159.858
rhand -22.1531 19.3166
rfingers 7.12502
rthumb 4.26092 -10.6205
lclavicle -1.44492e-014 -3.10104e-014
lhumerus 50.0547 -4.7335 89.1027
lradius 8.48468
lwrist -59.9118
lhand -14.18 0.527437
lfingers 7.12502
lthumb 11.9555 30.166
rfemur 5.04251 6.37073 18.5521
rtibia 26.2869
rfoot -27.3401 -15.5885
rtoes -9.71462
lfemur -2.90875 -14.1094 -18.8563
ltibia 36.8149
lfoot -27.292 5.49388
ltoes -1.33662
2
root -4.65443 17.0585 -1.00236 336.605 -88.2813 -346.747
lowerback 18.4556 -2.08083 0.856445
upperback 0.809681 -3.05489 -3.63242
thorax -9.74555 -1.6414 -3.63649
lowerneck 3.81393 0.997469 -2.63802
upperneck 4.00577 1.08231 4.00311
head 0.560086 0.489112 1.68008
rclavicle 4.44905e-014 1.74931e-014
rhumerus 90.5987 -37.54 -194.778
rradius 10.4946
rwrist 159.596
rhand -22.0058 19.4069
rfingers 7.12502
rthumb 4.4032 -10.5273
lclavicle 4.44905e-014 1.74931e-014
lhumerus 50.0288 -4.72421 89.0466
lradius 8.62574
lwrist -59.8274
lhand -14.0172 0.514888
lfingers 7.12502
lthumb 12.1125 30.1443
rfemur 4.6358 5.00078 18.0914
rtibia 27.299
rfoot -27.0251 -14.341
rtoes -9.91021
lfemur -3.14963 -13.2178 -18.6009
ltibia 37.4816
lfoot -27.1474 4.56069
ltoes -1.41473
3
root -4.64703 17.0243 -1.00634 335.998 -88.2418 -346.416
lowerback 18.9354 -2.08946 0.896136
upperback 0.892727 -3.06861 -3.65889
thorax -9.92642 -1.65269 -3.67536
lowerneck 3.80921 0.974675 -2.59571
upperneck 3.93174 1.05855 3.93544
head 0.539231 0.478097 1.65065
rclavicle -4.74598e-015 1.59028e-015
rhumerus 90.6846 -37.4068 -194.997
rradius 10.4959
rwrist 159.682
rhand -21.9881 19.4331
rfingers 7.12502
rthumb 4.42024 -10.5007
lclavicle -4.74598e-015 1.59028e-015
lhumerus 50.0018 -4.71812 88.9461
lradius 8.73934
lwrist -59.6141
lhand -13.8146 0.331613
lfingers 7.12502
lthumb 12.3079 29.9494
rfemur 4.19592 3.65049 17.6063
rtibia 28.4164
rfoot -26.7975 -13.064
rtoes -9.96471
lfemur -3.42595 -12.3089 -18.3574
ltibia 38.248
lfoot -27.0302 3.60749
ltoes -1.43171
4
root -4.63984 16.987 -1.00961 335.321 -88.2038 -345.998
lowerback 19.3824 -2.10051 0.906717
upperback 0.986309 -3.08743 -3.65463
thorax -10.0735 -1.66368 -3.66284
lowerneck 3.78055 0.96999 -2.62114
upperneck 3.87206 1.05676 3.87834
head 0.525728 0.477583 1.63663
rclavicle 1.19271e-015 2.54444e-014
rhumerus 90.958 -37.2017 -195.569
rradius 10.536
rwrist 160.213
rhand -22.007 19.5076
rfingers 7.12502
rthumb 4.40201 -10.4266
lclavicle 1.19271e-015 2.54444e-014
lhumerus 50.0267 -4.66608 88.8828
lradius 8.81834
lwrist -59.4009
lhand -13.6922 0.136097
lfingers 7.12502
lthumb 12.4259 29.7467
rfemur 3.6932 2.35272 17.1201
rtibia 29.6358
rfoot -26.6343 -11.8353
rtoes -10.1655
lfemur -3.76643 -11.4096 -18.1132
ltibia 39.1031
lfoot -26.9619 2.62785
ltoes -1.38343
5
root -4.63102 16.9444 -1.01183 334.815 -88.158 -345.789
lowerback 19.8842 -2.11115 0.947832
upperback 1.07917 -3.10143 -3.66379
thorax -10.2532 -1.67472 -3.68302
lowerneck 3.81619 0.958377 -2.62819
upperneck 3.77834 1.04557 3.82432
head 0.491294 0.471794 1.61991
rclavicle -2.46431e-014 -1.27222e-014
rhumerus 91.5613 -36.9457 -196.681
rradius 10.6095
rwrist 161.224
rhand -22.1537 19.5177
rfingers 7.12502
rthumb 4.26037 -10.4195
lclavicle -2.46431e-014 -1.27222e-014
lhumerus 50.0648 -4.64803 88.8178
lradius 8.88191
lwrist -59.1883
lhand -13.5524 -0.0428604
lfingers 7.12502
lthumb 12.5606 29.5596
rfemur 3.1819 1.09306 16.6377
rtibia 30.9646
rfoot -26.583 -10.6021
rtoes -10.3852
lfemur -4.11943 -10.5178 -17.8636
ltibia 40.0456
lfoot -26.9347 1.62497
ltoes -1.37762
6
root -4.6223 16.8992 -1.01394 333.734 -88.111 -344.985
lowerback 20.3742 -2.11847 0.964565
upperback 1.1785 -3.11706 -3.67759
thorax -10.4173 -1.68559 -3.69412
lowerneck 3.81038 0.939681 -2.59044
upperneck 3.68567 1.02806 3.74225
head 0.464718 0.463978 1.58666
rclavicle 9.03849e-015 -1.35174e-014
rhumerus 92.2956 -36.6113 -198.025
rradius 10.6789
rwrist 162.496
rhand -22.3228 19.5334
rfingers 7.12502
rthumb 4.09704 -10.4069
lclavicle 9.03849e-015 -1.35174e-014
lhumerus 50.1408 -4.62763 88.7482
lradius 8.92868
lwrist -59.0049
lhand -13.4707 -0.237744
lfingers 7.12502
lthumb 12.6395 29.3598
rfemur 2.59701 -0.134436 16.1289
rtibia 32.394
rfoot -26.5726 -9.38965
rtoes -10.4903
lfemur -4.53286 -9.63726 -17.6362
ltibia 41.0694
lfoot -26.9222 0.662353
ltoes -1.34957
7
root -4.61166 16.8477 -1.01581 333.3 -88.0696 -344.857
lowerback 20.9311 -2.13223 0.996522
upperback 1.27679 -3.13726 -3.68076
thorax -10.6194 -1.69935 -3.69961
lowerneck 3.75507 0.925383 -2.50802
upperneck 3.64054 1.01781 3.63153
head 0.461261 0.460762 1.53688
rclavicle 1.50176e-014 -7.95139e-015
rhumerus 92.9966 -36.2513 -199.318
rradius 10.7544
rwrist 163.749
rhand -22.509 19.5841
rfingers 7.12502
rthumb 3.91729 -10.3597
lclavicle 1.50176e-014 -7.95139e-015
lhumerus 50.2346 -4.58647 88.6712
lradius 8.93793
lwrist -58.9127
lhand -13.4548 -0.439737
lfingers 7.12502
lthumb 12.6548 29.1569
rfemur 1.99947 -1.29026 15.6539
rtibia 33.9206
rfoot -26.6451 -8.20925
rtoes -10.7103
lfemur -4.96787 -8.72782 -17.3636
ltibia 42.1802
lfoot -26.9382 -0.380562
ltoes -1.26251
